<mxfile host="app.diagrams.net" modified="2023-09-05T04:20:09.033Z" agent="Mozilla/5.0 (Windows NT 10.0; Win64; x64) AppleWebKit/537.36 (KHTML, like Gecko) Chrome/116.0.0.0 Safari/537.36" etag="Us7Cfw-A3O31xHh3I4OC" version="21.7.2" type="github">
  <diagram name="Página-1" id="ILQqUITbA65mAo8MY05Q">
    <mxGraphModel dx="1050" dy="534" grid="1" gridSize="10" guides="1" tooltips="1" connect="1" arrows="1" fold="1" page="1" pageScale="1" pageWidth="827" pageHeight="1169" background="#ffffff" math="0" shadow="0">
      <root>
        <mxCell id="0" />
        <mxCell id="1" parent="0" />
        <mxCell id="WA3Hk9I6TkB-f4L3sRZT-4" value="" style="rounded=0;whiteSpace=wrap;html=1;fillColor=default;" vertex="1" parent="1">
          <mxGeometry x="314.5" y="160" width="199" height="310" as="geometry" />
        </mxCell>
        <mxCell id="WA3Hk9I6TkB-f4L3sRZT-15" style="edgeStyle=orthogonalEdgeStyle;rounded=0;orthogonalLoop=1;jettySize=auto;html=1;" edge="1" parent="1" source="WA3Hk9I6TkB-f4L3sRZT-1" target="WA3Hk9I6TkB-f4L3sRZT-9">
          <mxGeometry relative="1" as="geometry" />
        </mxCell>
        <mxCell id="WA3Hk9I6TkB-f4L3sRZT-16" style="edgeStyle=orthogonalEdgeStyle;rounded=0;orthogonalLoop=1;jettySize=auto;html=1;entryX=0;entryY=0.5;entryDx=0;entryDy=0;" edge="1" parent="1" source="WA3Hk9I6TkB-f4L3sRZT-1" target="WA3Hk9I6TkB-f4L3sRZT-12">
          <mxGeometry relative="1" as="geometry" />
        </mxCell>
        <mxCell id="WA3Hk9I6TkB-f4L3sRZT-17" style="edgeStyle=orthogonalEdgeStyle;rounded=0;orthogonalLoop=1;jettySize=auto;html=1;entryX=0;entryY=0.5;entryDx=0;entryDy=0;" edge="1" parent="1" source="WA3Hk9I6TkB-f4L3sRZT-1" target="WA3Hk9I6TkB-f4L3sRZT-13">
          <mxGeometry relative="1" as="geometry" />
        </mxCell>
        <mxCell id="WA3Hk9I6TkB-f4L3sRZT-1" value="Alumno aprobado" style="shape=umlActor;verticalLabelPosition=bottom;verticalAlign=top;html=1;" vertex="1" parent="1">
          <mxGeometry x="160" y="260" width="30" height="60" as="geometry" />
        </mxCell>
        <mxCell id="WA3Hk9I6TkB-f4L3sRZT-18" style="edgeStyle=orthogonalEdgeStyle;rounded=0;orthogonalLoop=1;jettySize=auto;html=1;entryX=1;entryY=0.5;entryDx=0;entryDy=0;" edge="1" parent="1" source="WA3Hk9I6TkB-f4L3sRZT-2" target="WA3Hk9I6TkB-f4L3sRZT-14">
          <mxGeometry relative="1" as="geometry" />
        </mxCell>
        <mxCell id="WA3Hk9I6TkB-f4L3sRZT-2" value="Alumno reprobado" style="shape=umlActor;verticalLabelPosition=bottom;verticalAlign=top;html=1;" vertex="1" parent="1">
          <mxGeometry x="580" y="370" width="30" height="60" as="geometry" />
        </mxCell>
        <mxCell id="WA3Hk9I6TkB-f4L3sRZT-9" value="Hace prácticas" style="rounded=1;whiteSpace=wrap;html=1;" vertex="1" parent="1">
          <mxGeometry x="366" y="220" width="96" height="40" as="geometry" />
        </mxCell>
        <mxCell id="WA3Hk9I6TkB-f4L3sRZT-10" value="Análisis y diseño de programas" style="text;html=1;align=center;verticalAlign=middle;resizable=0;points=[];autosize=1;strokeColor=none;fillColor=none;" vertex="1" parent="1">
          <mxGeometry x="319" y="160" width="190" height="30" as="geometry" />
        </mxCell>
        <mxCell id="WA3Hk9I6TkB-f4L3sRZT-12" value="Hace exámenes" style="rounded=1;whiteSpace=wrap;html=1;" vertex="1" parent="1">
          <mxGeometry x="366" y="280" width="96" height="40" as="geometry" />
        </mxCell>
        <mxCell id="WA3Hk9I6TkB-f4L3sRZT-13" value="Hace proyecto" style="rounded=1;whiteSpace=wrap;html=1;" vertex="1" parent="1">
          <mxGeometry x="366" y="340" width="96" height="40" as="geometry" />
        </mxCell>
        <mxCell id="WA3Hk9I6TkB-f4L3sRZT-14" value="Copia" style="rounded=1;whiteSpace=wrap;html=1;" vertex="1" parent="1">
          <mxGeometry x="366" y="400" width="96" height="40" as="geometry" />
        </mxCell>
      </root>
    </mxGraphModel>
  </diagram>
</mxfile>
